<?xml version="1.0" encoding="utf-8"?>
<!-- Generator: Adobe Illustrator 25.4.1, SVG Export Plug-In . SVG Version: 6.00 Build 0)  -->
<svg version="1.1" id="Capa_1" xmlns="http://www.w3.org/2000/svg" xmlns:xlink="http://www.w3.org/1999/xlink" x="0px" y="0px"
	 viewBox="0 0 1920 1080" style="enable-background:new 0 0 1920 1080;" xml:space="preserve">
<style type="text/css">
	.st0{opacity:0.4;}
	.st1{fill:#FFFFFF;}
	.st2{fill:#000028;}
	.st3{opacity:0.4;fill:#FFFFFF;stroke:#000028;stroke-width:10;stroke-linejoin:round;stroke-miterlimit:10;}
</style>
<g class="st0">
	<polyline class="st1" points="-1,565.99 164.57,565.99 177.5,484.06 190.5,621.32 200.5,447.64 215.5,661.93 237.5,351 
		259.5,751.57 277.5,437.84 291.5,657.73 307.5,472.85 317.5,583.5 325.61,565.99 959,565.99 	"/>
	<path class="st2" d="M259.5,756.57C259.5,756.57,259.5,756.57,259.5,756.57c-2.66,0-4.85-2.08-4.99-4.73l-17.64-321.12
		l-16.38,231.56c-0.19,2.62-2.36,4.65-4.99,4.65c0,0,0,0,0,0c-2.62,0-4.8-2.03-4.99-4.65l-9.53-136.1l-5.49,95.42
		c-0.15,2.61-2.29,4.66-4.9,4.71c-2.62,0.08-4.82-1.92-5.07-4.53l-9.26-97.79l-6.75,42.78c-0.38,2.43-2.48,4.22-4.94,4.22H-1v-10
		h161.3l12.26-77.71c0.39-2.49,2.58-4.27,5.09-4.22c2.52,0.08,4.58,2.02,4.82,4.53l6.81,71.86l6.22-108.1
		c0.15-2.63,2.32-4.7,4.96-4.71c0.01,0,0.02,0,0.03,0c2.62,0,4.8,2.03,4.99,4.65l10.04,143.42l16.99-240.06
		c0.19-2.62,2.37-4.65,4.99-4.65c0.01,0,0.03,0,0.04,0c2.64,0.02,4.81,2.09,4.95,4.73l17.12,311.65l12.9-224.83
		c0.15-2.64,2.33-4.71,4.98-4.71c0,0,0.01,0,0.02,0c2.64,0,4.82,2.05,4.99,4.68l9.77,153.45l10.26-118.55
		c0.22-2.58,2.38-4.56,4.97-4.57c0,0,0.01,0,0.01,0c2.59,0,4.75,1.97,4.98,4.55l8.32,92.08l0.27-0.59c0.82-1.77,2.59-2.9,4.54-2.9
		H959v10H328.8l-6.77,14.61c-0.95,2.05-3.16,3.21-5.39,2.83c-2.23-0.39-3.92-2.22-4.12-4.48l-4.91-54.35l-11.13,128.57
		c-0.23,2.61-2.39,4.56-5.04,4.57c-2.62-0.03-4.77-2.07-4.93-4.68l-8.75-137.44l-13.27,231.25
		C264.34,754.5,262.15,756.57,259.5,756.57z"/>
</g>
<polyline class="st3" points="1918.88,568.43 1753.31,567.99 1740.27,649.89 1727.45,512.6 1717.22,686.24 1702.51,471.91 
	1680.09,782.79 1658.63,382.16 1640.2,695.84 1626.5,475.91 1610.25,660.75 1600.4,550.08 1592.27,567.56 958.88,565.88 "/>
</svg>
